<svg xmlns="http://www.w3.org/2000/svg" xmlns:xlink="http://www.w3.org/1999/xlink" width="1105.04" height="782.74"><style><![CDATA[.B{opacity:.1}.C{fill:#fff}.D{fill:#6c63ff}.E{fill:#ffb0b1}.F{fill:#1d2366}.G{fill:#cf6f80}.H{fill:#3f3d56}.I{stroke:#535461}.J{stroke-miterlimit:10}.K{stroke-width:2}]]></style><defs><linearGradient id="A" x1="403.57" y1="833.5" x2="403.57" y2="218.16" gradientUnits="userSpaceOnUse"><stop offset="0" stop-color="gray" stop-opacity=".25"/><stop offset=".54" stop-color="gray" stop-opacity=".12"/><stop offset="1" stop-color="gray" stop-opacity=".1"/></linearGradient><linearGradient id="B" x1="940.67" y1="825.72" x2="940.67" y2="263.72" xlink:href="#A"/><path id="C" d="M775.83 351.6h28.44v28.44h-28.44z"/><path id="D" d="M884.4 351.6h28.44v28.44H884.4z"/><path id="E" d="M439.56 455.1l-2.16 9.2s-17.3-8.83-20.42-20.05 5.22-15.48 5.22-15.48l16.12 6.83z"/><path id="F" d="M828.76 380.37s-14 15-3.4 23.36 17.57.8 17.57.8z"/><path id="G" d="M883.27 347.63s-2.4 5-7.2 4.2-4.8 18-4.8 18-3.2 3-5.4.4-8 6.2-8 6.2l-36.34 1.6s16.17 7.4 13 29.75c0 0 54.9-3.4 56.7-8.6s-8-51.54-8-51.54z"/></defs><g class="D"><ellipse cx="367.38" cy="766.65" rx="97.44" ry="15.65" class="B"/><ellipse cx="897.05" cy="767.09" rx="121.59" ry="15.65" class="B"/><path d="M115.33 184.18H59.66a422 422 0 0 1 29.61-40.76c8.27-10.16 17-20.06 26.06-29.6zm0 4.28v145.46H14.16c0-.42.07-.85.1-1.27l.28-3.44.78-8.36.46-4.37.5-4.34 1-7.93.73-5.07c0-.25.07-.5.1-.75a345.9 345.9 0 0 1 7.45-36.52 270.1 270.1 0 0 1 12.55-37C43.5 212.3 49.8 200.15 57 188.5z" class="B"/><path d="M139.56 338.2v138.34h216.77V338.2zm0 142.6v118.8l3.7.72 5 .86 1 .13 2 .3 7.4.78 1.93.15 5.06.25h7.13l2.63-.08 1.8-.08a4.2 4.2 0 0 0 .5 0c.5 0 1 0 1.48-.07h.35l3.35-.26 3.33-.35 2.28-.27c9.28-1.3 18.45-3.25 27.45-5.84 20.22-5.64 40-13.53 60.2-19.3 26.13-7.45 55-11.1 80.25-2V480.8zm216.77-296.62V.01a278.6 278.6 0 0 0-70.43 8.26c-54.9 13.8-104.14 43.7-146.34 81.9v94h10.88v4.27h-10.88v145.48h216.77V188.45H195.1v-4.27zm278.43-62.2c-13.58-.48-27.08-4.78-39.3-11.42-23.35-12.7-42-32.3-62.84-48.86-43.3-34.47-97-55.27-152.1-60.43V184.2l310.22-.8zm28.2-5l29.9 32.8v-41.4c-10 1.24-18.78 4.2-29.85 8.56zm29.9 512.13V480.8h-63.7c-.17-.63-.34-1.27-.54-1.9.2.64.35 1.28.53 1.9H380.58v107.25a212.5 212.5 0 0 1 7 5.46l9.9 8.24a121.8 121.8 0 0 0 3.6 2.94q3.6 2.92 7.27 5.76c1.2 1 2.45 1.9 3.68 2.84a501.2 501.2 0 0 0 61.63 40.31q7.23 4 14.6 7.8l9.86 4.94q7.44 3.63 15 7c46.47 20.86 95.6 35.17 146 42.53q16.8 2.48 33.7 3.9v-90.7h1zM380.58 188.45v145.47h312.3V188.45zm0 149.74v138.34h312.3V338.2zm336.54-230v46.18l38.15-41.86q-18.96-3.06-38.15-4.37zm0 230.05v138.3h303.75V338.2zm302.64 301.84l1.07-159.28h-303.7v240.57a542.2 542.2 0 0 0 58.7-.7h.34q14-.88 27.87-2.56h.2a513.1 513.1 0 0 0 143.2-38.2m132-318.93c-1.14-2.7-2.33-5.36-3.54-8a369.7 369.7 0 0 0-7.11-14.72h-23.7v138.28h59.9c-.03-39.16-9.94-79.16-25.54-115.6zm-34.35 119.88v137c16.88-16.18 31.14-34.7 41.4-55.85 12.35-25.48 18-53.07 18.46-81.17zm0-182.92v36h21.48a390 390 0 0 0-21.45-36.05zm-206-162.6l-4.75-1.8a433.6 433.6 0 0 0-51.31-15.42l-59.5 65.26.75.82h207.78a444.4 444.4 0 0 0-92.94-48.91zm99.06 53.17H721.38l-4.26 3.9v141.52h303.8v-68.55a432.8 432.8 0 0 0-82.73-76.92zm-822.82 73.32v72.1H14.16c0-.42.07-.85.1-1.27l.28-3.44.78-8.36.46-4.37.5-4.34 1-7.93.73-5.07c0-.25.07-.5.1-.75a345.9 345.9 0 0 1 7.45-36.52z" class="B"/><path d="M13.84 338.2h101.5v138.33H21.27l-.75 4.28h94.8v111.56a3.9 3.9 0 0 1-.48-.17l-9.7-4.15q-4-1.9-8-4l-2.78-1.52a166.4 166.4 0 0 1-39.88-31.16l-1-1-4.75-5.36-1.7-2-6.04-7.84a148.9 148.9 0 0 1-17.2-31.1l-.4-1q-2.06-5.3-3.65-10.7l-1.65-5.93c-5.68-22.17-6.35-45.2-6.35-68.07v-8L12 382.5c0-2.4.1-4.8.15-7.23q.2-9.2.6-18.42l.23-5.1q0-1.47.15-2.94l.68-10.6zm202.03-128.92v124.64h-76.3V209.28h10.88v-42.2h44.66v42.2h20.77zm-76.3 128.92h76.3v138.33h-76.3zm-.01 142.6h76.3v115a199.1 199.1 0 0 1-27.45 5.83l-2.28.28-3.33.35a92.6 92.6 0 0 1-3.35.26h-.35c-.48 0-1 .06-1.47.07h-.5l-1.8.08-2.57.07h-7.08l-1.93-.07c-1 0-2.08-.1-3.12-.18l-1.92-.14-2.4-.22-5-.57-3-.42a149.4 149.4 0 0 1-5-.86l-3.7-.72zm490.4-286.24h62.92V333.9h-62.92zM692.9 338.2v138.34H380.6v-59.67h166.35v35.2h83.03V338.2h62.93zm.98 290.93h-1v90.75q-16.9-1.43-33.7-3.9a551 551 0 0 1-146.06-42.62Q493 664.3 473.68 653.6c-21.5-11.9-42.1-25.4-61.64-40.3q-7.36-5.64-14.53-11.54l-9.93-8.25a224 224 0 0 0-7-5.47V480.8h248.55l-.52-1.9a59.8 59.8 0 0 1 .54 1.91h63.73v148.26c.34.01.67.04 1 .06zm163.1-444.95h-41v-12.74h18.38V133.5q2.4.87 4.76 1.8v36.16h17.86z" class="B"/><path d="M955.76 333.92H717.12V194.57h10.58v103h48.35v-61H816v-48.1h41v48.15h39.94v61h58.83zm-238.64 4.28v138.34h238.64V338.2zm303.42 301.18l.33-109.5h-65.1v-49H717.12v240.5a542.2 542.2 0 0 0 58.7-.7h.34q14-.88 27.87-2.56h.2a513.1 513.1 0 0 0 143.2-38.2m101.9-199.12H1105c-.5 28.1-6.13 55.68-18.47 81.16-10.27 21.17-24.54 39.68-41.4 55.85v-88h4.2zm55.7-4.27h-55.7v-115.6h30.14c15.6 36.45 25.5 76.45 25.56 115.6zM659.18 233.3h33.7V277h-33.7zm0 90.56h33.7v10.06h-33.7zm0 14.34h33.7v29.35h-33.7zm0 76.22h33.7v43.7h-33.7zm0 90.56h33.7v43.7h-33.7zm33.7 124.1c.34 0 .67 0 1 .06h-1v10.15h-33.7v-43.74h33.7zm0 57v33.75q-16.9-1.43-33.7-3.9v-29.86zm-312.3-212.76h144.47v3.2H380.58zm0 7.48h144.47v12.3H380.58zm0 52.62h144.47v19.78H380.58zm144.46 60.1v19.78h-113q-7.36-5.62-14.54-11.54l-9.93-8.24zm0 60.08v19.76H513.1q-20.1-9.07-39.43-19.8z" class="B"/><use xlink:href="#C" class="B"/><use xlink:href="#C" x="-615.78" y="-132.5" class="B"/><use xlink:href="#C" x="-615.78" y="-66.45" class="B"/><use xlink:href="#C" x="-615.78" y="-0.4" class="B"/><use xlink:href="#C" x="-615.78" y="65.66" class="B"/><use xlink:href="#C" x="-615.78" y="131.72" class="B"/><use xlink:href="#C" x="-615.78" y="197.78" class="B"/><use xlink:href="#D" class="B"/><use xlink:href="#C" y="70.15" class="B"/><use xlink:href="#D" y="70.15" class="B"/><use xlink:href="#C" y="140.3" class="B"/><use xlink:href="#D" y="140.3" class="B"/><use xlink:href="#C" y="210.44" class="B"/><use xlink:href="#D" y="210.44" class="B"/><use xlink:href="#C" y="280.6" class="B"/><use xlink:href="#D" y="280.6" class="B"/><path d="M775.83 720.67v-18.34h28.43v15.73l-28.43 2.6zM18 298.37v16.27h97.33v-16.27zm9.7 15.25h-7.94v-14.25h8zm9.7 0h-8v-14.25h8zm9.67 0h-8v-14.25h8zm9.7 0h-8v-14.25h8zm9.68 0h-8v-14.25h8zm9.7 0h-8v-14.25h8zm9.7 0h-8v-14.25h8zm9.68 0h-8v-14.25h8zm9.68 0h-8v-14.25h8zm9.68 0h-8v-14.25h8zM18 345.7v16.27h97.33V345.7zm9.7 15.24h-7.94v-14.2h8zm9.7 0h-8v-14.2h8zm9.67 0h-8v-14.2h8zm9.7 0h-8v-14.2h8zm9.68 0h-8v-14.2h8zm9.7 0h-8v-14.2h8zm9.7 0h-8v-14.2h8zm9.68 0h-8v-14.2h8zm9.68 0h-8v-14.2h8zm9.68 0h-8v-14.2h8zM18 393.07v16.3h97.33v-16.3zm9.7 15.24h-7.94v-14.2h8zm9.7 0h-8v-14.2h8zm9.67 0h-8v-14.2h8zm9.7 0h-8v-14.2h8zm9.68 0h-8v-14.2h8zm9.7 0h-8v-14.2h8zm9.7 0h-8v-14.2h8zm9.68 0h-8v-14.2h8zm9.68 0h-8v-14.2h8zm9.68 0h-8v-14.2h8zM18 440.43v16.25h97.33v-16.25zm9.7 15.24h-7.94v-14.23h8zm9.7 0h-8v-14.23h8zm9.67 0h-8v-14.23h8zm9.7 0h-8v-14.23h8zm9.68 0h-8v-14.23h8zm9.7 0h-8v-14.23h8zm9.7 0h-8v-14.23h8zm9.68 0h-8v-14.23h8zm9.68 0h-8v-14.23h8zm9.68 0h-8v-14.23h8zm-96.47 32.1l1.3 4.57v-3.55h8v14.22h-4.28l.4 1h91.5v-16.24zm19 15.24h-8V488.8h8zm9.67 0h-8V488.8h8zm9.7 0h-8.02V488.8h8zm9.68 0h-8V488.8h8zm9.7 0h-8V488.8h8zm9.7 0h-8V488.8h8zm9.68 0h-8V488.8h8zm9.68 0h-8V488.8h8zm9.68 0h-8V488.8h8zm-73.9 32.12l.75 1h5.3v6.83l1.7 2v-8.87h8v14.27h-3.24l1 1h60.83v-16.23zm25.4 15.23h-8v-14.2h8zm9.7 0h-8v-14.2h8zm9.7 0h-8v-14.2h8zm9.68 0h-8v-14.2h8zm9.68 0h-8v-14.2h8zm9.68 0h-8v-14.2h8zM94.4 582.5l2.8 1.5v-.5h8v4.5l1.7.8v-5.3h8v8.65a2.5 2.5 0 0 0 .48.18v-9.85zm660.08-248.58h.06zm-61.6 295.14h1zM628.6 478.9l.53 1.9-.53-1.9zm125.87-145h.06zm-604-149.74v4.27h44.67v-4.27zm542.4 444.9h1zM628.6 478.9l.53 1.9-.53-1.9zm125.87-145h.06zm-61.6 295.14h1zM628.6 478.9l.53 1.9-.53-1.9z" class="B"/></g><path d="M508.84 438.3s-3.94-.55-3.94-6.3-2.82-16.46-2.82-16.46c0-.05-2.44-18.67-5.8-21.63s-7.7-20.34-7.7-20.34-.74-9.43-2.25-11.46-3.55-7-6.56-14.1-15.56-12-15.56-12-22.7-13.16-29.12-17.45c-.58-.35-1.13-.76-1.63-1.23-1.12-1.47-6-1.5-6-1.5-.5-3.22-1-6.92-1.16-10.27 0-.36 0-.72-.05-1.08a34.6 34.6 0 0 0 15.21-18.82c.12-.38.22-.78.33-1.16.87-.3 1.58-.93 1.95-1.76.58-1.3.6-2.8 1.3-4 .84-1.42 2.44-2.18 3.7-3.25 3.18-2.7 4-7.25 3.85-11.4-.1-3.35-.64-6.73-.43-10.06l.06-.84a22.9 22.9 0 0 1 .22-1.48c.5-2.48 1.56-4.82 2.16-7.28s.66-5.23-.74-7.35c-2.05-3.1-6.32-3.73-10.07-4.05-4.25-.36-8.05.1-10.77-3.42a38.4 38.4 0 0 0-4.28-5.17c-.56-.52-6-3.84-6-4.06a24.3 24.3 0 0 0-16.95-1.3c-2.82.82-5.48 2.16-8.34 2.83-6.17 1.46-13.27-.12-18.5 3.4-2.92 2-4.67 5.18-6.3 8.28q-2 3.83-4.06 7.65c-2.2 4.2-4.46 8.45-5.4 13.1a20.8 20.8 0 0 0-.36 3.06v1.63a5.4 5.4 0 0 0 .06 1c.06.3.05.4.08.62s.08.68.14 1 .18.88.3 1.32c.05.2.12.37.18.55.1.34.22.67.35 1 .07.17.14.35.22.52.15.35.33.7.5 1 .08.14.14.27.22.4.28.47.6.9.92 1.34 2.14 2.67 5.3 4.37 7.62 6.87v1.12c.25 11.32 6.08 21.78 15.58 27.95 0 .38.05.77.07 1.15a57.2 57.2 0 0 1-.11 8.91 4.2 4.2 0 0 0-3.32-1.48 4.8 4.8 0 0 0-1.28.11l-.1-.07v.1c-2.2.54-4.9 2.83-7.5 9.34 0 0-7.88 8.88-13.88 8.5s-21.2 9.24-21.2 9.24-14.82 9.62-18 19.42c-1.78 5.56-3.9 11-6.38 16.28L299 413l-3.38 29.95s1.87 13.32 1.5 15.35 7.7 20.34 7.7 20.34 26.63 46.8 37.5 49.2l.78-.55a6.4 6.4 0 0 0 1.47.55l2.24-1.58a24.4 24.4 0 0 1-.17 5.28c-1.5 4.62.56 34.77 3.18 40.68s1.7 83.4 1.7 83.4l-.37 6.84a2.9 2.9 0 0 0 .09.6l-.1 1.62.27.14c.28 2.17.2 4.37-.27 6.5-.94 3-1.32 11.48-1.32 11.48s-7.5 47.88-3.94 57.5a330.1 330.1 0 0 1 6.57 20.16s3.75 12 .18 14.05S338.9 780 341 785c1.9 4.62 9.1 17 10.18 18.8l-.1.95-1.47 15.93a20 20 0 0 0 1.69 6.08c1.6 3.47 4.74 7.07 10.7 6.68a53.9 53.9 0 0 0 3.28-.34c10.9-1.46 24.3-6.32 24.3-6.32a9.9 9.9 0 0 1-1.9-1.57 5.5 5.5 0 0 1-1.67-4c.16-2.9-5.27-16.72-6.62-20.12-.2-.5-.32-.77-.32-.77s12.38-12.94 10.32-24.4c0 0-13.7-8-9.2-12.4s12.57-17 12.57-17v-54.2a58.3 58.3 0 0 1 .69-14.63 35.2 35.2 0 0 1 .52-2.14c6.24.93 12.53 1.4 18.84 1.43 2.3 0 4.64 0 7-.14q0 1 .1 2.16c.52 11.68 1.5 32.16 2.28 39.77 1.12 10.9 7.3 40.3 7.3 40.3s-11.8 7.58 2.06 26.26c0 0 0 6.77-.92 7.75a84.8 84.8 0 0 0-2.37 9.76c-.58 3.52-.82 7.08.12 8.93 2.25 4.42 15.75 4.06 15.75 4.06l.33-.06c5.15-.53 10.3 1.02 14.3 4.3 5.13 4.12 24.6 2.3 35.14 1l6.9-1a4 4 0 0 0 .14-1.44c-.1-2.6-2.14-8.27-15.9-13.34 0 0-12.94-8.7-12.76-16.28h-1.77a14.1 14.1 0 0 1 1.79 0s-5.07-18.5-3-20-4.13-22-4.13-22l-3.74-36.8a21 21 0 0 1 .93-6.1l-.93-18.86s-.18-6.27 0-8.3a41.5 41.5 0 0 0-.43-5.29l-.28-2.15c4.85-1.23 8-2.37 8-2.37l-.56-65.65c4.12-8 4.88-25.55 4.86-38 0-8-.36-13.92-.36-13.92l5.63-9.2s1.3-11-.76-13.4c-.9-1.1-.5-2.22.25-3.15.4-.3.8-.6 1.23-.84 0 0-.06-.1-.13-.22.4-.33.8-.63 1.25-.9 0 0-2-3.1-.2-4.4 1.68 1.14 3.18 2 4.32 2.7-.08.73-.16 1.15-.16 1.15l.48-1 1.77 1s8.82-17.57 8.63-20.16 6-13.5 6-13.5.75-5.73 4.13-8.13 2.62-19.8 2.62-19.8.94-9.06 3.2-12.76-2.05-8.7-2.05-8.7zm-168.76-7.7l.17 4.2-1.72-2.77z" transform="translate(-47.24 -58.63)" fill="url(#A)"/><use xlink:href="#E" class="C"/><use xlink:href="#E" class="B"/><path d="M342.47 768.22s-16 5.88-27 6.62c-5.84.4-8.9-3.2-10.5-6.64a20.1 20.1 0 0 1-1.65-6.05l2.2-24.3 23.37-6.07 3.62 10.9c1.33 3.38 6.66 17.13 6.5 20a5.5 5.5 0 0 0 1.64 3.95 9.5 9.5 0 0 0 1.82 1.59zm109.3-8.06a4 4 0 0 1-.14 1.43s-34.22 5.7-41.22 0a18.6 18.6 0 0 0-14.4-4.22s-13.24.36-15.45-4c-.92-1.83-.68-5.38-.1-8.88a84.6 84.6 0 0 1 2.32-9.71l.53-.42 3.15-2.53 37.16-1.1c-.18 7.54 12.52 16.2 12.52 16.2 13.5 5 15.48 10.65 15.64 13.23z" class="C"/><path d="M451.76 760.16a4.1 4.1 0 0 1-.15 1.43s-34.2 5.7-41.2 0c-4-3.37-9.2-4.9-14.4-4.22 0 0-13.25.36-15.45-4-.92-1.84-.7-5.38-.12-8.88 5.1.5 13.15 1.78 16.3 4.8 4.78 4.6 12.88 9.2 17.85 9.57a2801.4 2801.4 0 0 0 37.16 1.29zm-109.3 8.06s-16 5.88-27 6.62c-5.84.4-8.9-3.2-10.48-6.65 4.07 1.37 9.72 2.8 12.7 1.5 3.52-1.56 16-2.57 23-3a9.5 9.5 0 0 0 1.8 1.54z" class="B"/><path d="M366.2 294.37c-13.2-5.13-30.18-22.08-25.94-30a17.7 17.7 0 0 0 1.65-6.36c.27-3 .3-6 .12-9-.3-4.9-.9-9.8-1.77-14.64 0 0 41.2.93 38.8 7-.7 1.78-.8 4.87-.62 8.33s.7 7.37 1.2 10.68c.72 4.54 1.44 8 1.44 8s-2.52 3.53-4 3.72 8.04 29.58-10.9 22.27z" class="G"/><path d="M332.48 742.68l-.3.34c-12.32-14.9-27.22 3.67-27.22 3.67l-.22-.4.76-8.44 23.37-6.07 3.3 10.12zm91.12-10.88s-9-.2-13.8 4.05-28 .92-27 0a3.3 3.3 0 0 0 .52-1.52l3.15-2.53 36.88-1.1.25 1.1z" class="B"/><path d="M347.8 614.78a27.8 27.8 0 0 0-1.52 5.13 58.7 58.7 0 0 0-.69 14.56c.37 7 0 53.9 0 53.9s-7.9 12.5-12.32 16.92 9 12.33 9 12.33c2 11.4-10.12 24.28-10.12 24.28-12.32-14.9-27.22 3.68-27.22 3.68s-8.1-14-10.12-19 7.9-8.46 11.4-10.5-.17-14-.17-14-2.95-10.5-6.45-20.06 3.86-57.2 3.86-57.2.38-8.46 1.3-11.4a19.1 19.1 0 0 0 .27-6.48 44.4 44.4 0 0 0-.18-1.75c-.05-.4-.1-.6-.1-.6l.14-.24 5-9.32s40.32 13.88 37.92 19.75zm75.8 115.92s-9-.2-13.8 4-28 .92-27 0 .92-7.73.92-7.73c-13.6-18.58-2-26.12-2-26.12s-6.08-29.25-7.18-40.1c-.77-7.58-1.72-27.95-2.23-39.58l-.35-8.44 39.37-7.9s.74 5 1.24 9.1a42.5 42.5 0 0 1 .42 5.27c-.18 2 0 8.26 0 8.26l.9 18.77a21.3 21.3 0 0 0-.91 6.07 7454.9 7454.9 0 0 0 3.67 36.6s6.07 20.42 4 21.9 2.94 19.92 2.94 19.92z" class="D"/><path d="M379.08 241.37c-.7 1.78-.8 4.87-.62 8.33-11.26 6.78-25.42 6.52-36.42-.68-.3-4.9-.9-9.8-1.77-14.65 0 0 41.2.9 38.8 7z" class="B"/><path d="M395 219.27c.01 3.6-.56 7.2-1.68 10.6a34.2 34.2 0 0 1-66.74-9.79v-.82a34.2 34.2 0 0 1 51.49-30.12 34.2 34.2 0 0 1 16.94 30.12z" class="G"/><path d="M366.2 294.37c-13.2-5.13-30.18-22.08-25.94-30a17.7 17.7 0 0 0 1.65-6.36l29.25 24.02 8.5-21.64c.72 4.54 1.44 8 1.44 8s-2.52 3.53-4 3.72 8.04 29.57-10.9 22.26z" class="B"/><path d="M412.94 360l-15.1 253.5-19.68 1.3-50.96-147 10.12-211.38 33.85 27.78 8.75-22.27 16.27 14.18 16.74 83.9z" class="D"/><path d="M347.8 614.78a27.8 27.8 0 0 0-1.52 5.13 145 145 0 0 1-41.26-12.89l-.27-.14.14-2.45 5-9.32s40.3 13.8 37.9 19.67zm35.52 5.17c-3.66.62-7.35 1.04-11.06 1.26l-.35-8.44 11.12-2.24z" class="B"/><path d="M412.52 613.95c-7.1 1.85-18.1 3.93-27.92 2.63l-.14-6.34 26.82-5.38a386.5 386.5 0 0 0 1.24 9.09zm-28.1 3.8c-41 7-78.55-13.07-78.55-13.07l.36-6.8s.93-77.1-1.65-83-4.6-35.88-3.13-40.48-5.33-73.58-5.33-73.58l-1.1-28-40.26-16.3 18-37.52a135.4 135.4 0 0 0 6.26-16.2c3.13-9.74 17.66-19.3 17.66-19.3s14.9-9.56 20.8-9.2 13.6-8.46 13.6-8.46c5.7-14.53 10.86-7.95 10.86-7.95 0 .7 0 0-.28 2.15-2 15.95 32.34 66.35 32.83 67.24l6.58 180.47z" class="B"/><path d="M383.32 617.74c-41 7-78.56-13.07-78.56-13.07l.37-6.8s.93-77.1-1.66-83-4.6-35.88-3.12-40.48-5.33-73.58-5.33-73.58l-1.1-28-40.28-16.37 18-37.52a137.5 137.5 0 0 0 6.26-16.2c3.12-9.74 17.66-19.3 17.66-19.3s14.9-9.56 20.78-9.2 13.6-8.46 13.6-8.46c5.7-14.53 12-7.95 12-7.95 0 .7-.6 1-.28 2.15 4.4 15.47 31.24 66.35 31.73 67.24L380 507.66z" class="C"/><path d="M372.27 329.46c-4.4-1.84-27.77-28.5-27.77-28.5v-6.07c-.85-2-5.9-.78-10 .62l1.76-36.87 2 1.66c4.38 15.46 33.5 68.28 34 69.17z" class="B"/><path d="M373.38 327.25c-4.42-1.84-27.78-28.5-27.78-28.5v-6.07c-.85-2-5.9-.78-10 .62l1.77-36.87 2 1.66c4.4 15.46 33.52 68.3 34 69.17z" class="C"/><path d="M305.87 460.26c.55 0 28.5-2.94 28.5-2.94s16.93 33.3 15.82 41.4-3.12 15.27-9.93 14-36.65 1-36.65 1z" class="B"/><path d="M304.76 458.05c.55 0 28.5-2.94 28.5-2.94s16.92 33.3 15.82 41.4-3.13 15.27-9.93 14-36.65 1-36.65 1z" class="C"/><path d="M325.83 442.42s25.66 13.8 26.2 18-13.06-1.84-16-2.57a36.6 36.6 0 0 0-5.89-.92l-19.6.53z" class="G"/><circle cx="365.11" cy="328.48" r="2.7" class="B"/><circle cx="365.11" cy="327.38" r="2.7" class="H"/><circle cx="370.08" cy="445.36" r="2.7" class="B"/><circle cx="370.08" cy="444.25" r="2.7" class="H"/><circle cx="367.8" cy="386.92" r="2.7" class="B"/><circle cx="367.8" cy="385.82" r="2.7" class="H"/><g class="C"><path d="M430.04 456.37s1.84 2.76 0 4.05.18 4.4.18 4.4-4.6 2.7-2.57 5.1.74 13.35.74 13.35l-5.52 9.14a287.8 287.8 0 0 0 .35 13.85c0 12.42-.73 29.88-4.77 37.84l.56 65.3s-19.33 7.06-35.5 4.9l-2.4-104.8 4.8-70.83a118.7 118.7 0 0 0 .92-17.85c0 0-.55-17.84-2.4-26.12l-2.2-45.8c-.1-4.75.16-18.6.44-31.8l.66-28-3.65-28.88s3.65-.37 4.75 1.1c.5.46 1.03.87 1.6 1.23 6.3 4.26 28.56 17.36 28.56 17.36s12.32 4.9 15.27 11.92 5 12 6.43 14 2.2 11.4 2.2 11.4 4.24 17.3 7.55 20.23 5.73 21.57 5.73 21.57l-29.25 23-3.12 39.74c-.55 1.48 10.65 34.55 10.65 34.55z"/><path d="M431.15 456.37s1.83 2.76 0 4.05.17 4.4.17 4.4-4.56 2.72-2.56 5.14.74 13.35.74 13.35l-5.52 9.14a294.7 294.7 0 0 0 .36 13.85c0 12.42-.73 29.88-4.77 37.84l.55 65.3s-19.36 7.06-35.52 4.9l-2.4-104.8 4.8-70.83a117.6 117.6 0 0 0 .91-17.85s-.55-17.84-2.4-26.12l-2.2-45.8c-.1-4.75.17-18.6.44-31.8l.66-28-4.82-29.27s4.82 0 5.93 1.5a9.5 9.5 0 0 0 1.6 1.23c6.3 4.26 28.57 17.36 28.57 17.36s12.3 4.9 15.26 11.92 5 12 6.44 14 2.2 11.4 2.2 11.4 4.24 17.3 7.55 20.23 5.7 21.53 5.7 21.53l-29.25 23-3.13 39.74c-.56 1.48 10.7 34.56 10.7 34.56z"/></g><path d="M396.12 297.67l2.64 7.7-13.9 14 .66-28-4.82-29.27s4.82 0 5.93 1.5a9.1 9.1 0 0 0 1.6 1.22l11.82 34.1z" class="B"/><path d="M395 295.46l2.65 7.7-13.9 14 .66-28-4.83-29.27s4.83 0 5.93 1.5a10 10 0 0 0 1.6 1.23l11.83 34.1z" class="C"/><path d="M395 219.27c.01 3.6-.56 7.2-1.68 10.6-.38.06-.77-.04-1.08-.27-.26-9-4.7-17.45-10.14-24.64a25.9 25.9 0 0 0-5.5-5.7c-2.14-1.6-4.8-2.36-7.46-2.1-3 .4-5.65 2.45-8.68 2.7-4 .33-7.58-2.44-11.55-2.58-3.26.03-6.36 1.47-8.5 3.94a23.3 23.3 0 0 0-4.55 8.44 49.4 49.4 0 0 0-2.54 14.56c-.05 2.8-.32 6.3-2.92 7.33.4-4.16-.97-8.3-3.77-11.4l-.06-.06v-.82a34.2 34.2 0 0 1 51.49-30.12 34.2 34.2 0 0 1 16.94 30.12z" class="B"/><path d="M374.97 164.94c-5.2-2.44-11.1-2.9-16.62-1.3-2.77.82-5.38 2.15-8.2 2.82-6 1.45-13-.12-18.15 3.4-2.86 2-4.58 5.16-6.18 8.23l-4 7.62c-2.18 4.17-4.38 8.4-5.3 13s-.36 9.73 2.55 13.42c2.12 2.7 5.25 4.38 7.55 6.9a15 15 0 0 1 3.76 11.4c2.6-1 2.86-4.52 2.92-7.32a49.4 49.4 0 0 1 2.54-14.56 23.2 23.2 0 0 1 4.55-8.44c2.13-2.47 5.23-3.9 8.5-3.94 4 .14 7.6 2.9 11.55 2.57 3-.25 5.66-2.3 8.68-2.7a10.7 10.7 0 0 1 7.46 2.11 25.6 25.6 0 0 1 5.49 5.7c5.46 7.2 9.9 15.62 10.15 24.64 1.13.83 2.76-.25 3.32-1.53s.58-2.78 1.3-4c.82-1.4 2.4-2.16 3.62-3.22 3.12-2.7 3.9-7.22 3.78-11.33s-.92-8.28-.14-12.32c.47-2.48 1.53-4.8 2.1-7.25s.65-5.2-.72-7.3c-2-3.1-6.2-3.7-9.88-4-4.17-.36-7.9.1-10.56-3.4a38.3 38.3 0 0 0-4.2-5.14c-.53-.52-5.88-3.82-5.88-4.04z" fill="#512e4e"/><path d="M266.28 375.82l-10.45-19.32-3.3 29.8s1.84 13.24 1.47 15.27 7.54 20.23 7.54 20.23 26.13 46.54 36.8 48.94L334.38 445l-9.56-12.14s-3.3-1.3-4.14 0l-19.6-32.75c-1.84-2.2-1.48-6.62-1.48-6.62s-2.76-2.94-1.84-5.7-5.33-12.33-5.33-12.33l5.7-5.33z" class="B"/><path d="M256.38 354.3l-2.76 2.2-3.3 29.8s1.84 13.24 1.47 15.27 7.55 20.23 7.55 20.23 26.12 46.54 36.8 48.94L332.18 445l-9.57-12.14s-3.3-1.3-4.14 0l-19.6-32.75c-1.84-2.2-1.47-6.62-1.47-6.62s-2.76-2.94-1.84-5.7-5.34-12.33-5.34-12.33l5.7-5.33z" class="C"/><path d="M427.65 471.08c2 2.43.74 13.34.74 13.34l-5.52 9.14s.33 5.9.35 13.85l-9.28 2.9a5.5 5.5 0 0 1-7.15-5.43l1.6-51.6 21.65 8.28c-1.84 1.28.18 4.42.18 4.42s-4.6 2.68-2.57 5.1z" class="B"/><path d="M428.76 469.97c2 2.43.74 13.35.74 13.35l-5.52 9.14a294.7 294.7 0 0 0 .36 13.85l-9.45 2.95a5.4 5.4 0 0 1-7-5.32l1.6-51.77 21.66 8.28c-1.85 1.28.17 4.4.17 4.4s-4.57 2.7-2.57 5.1z" class="C"/><path d="M435.93 445.37s-1.47 9.4-5.15 9.94-5.33 15.2-9 14.67-1.24-13.6-1.1-16.15-4-13.06-.9-15.45 12.87 0 12.87 0z" class="G"/><path d="M443.76 373.06l6.94-14s2.76 10.67 2.76 16.37 3.86 6.26 3.86 6.26 4.23 5 2 8.64-3.13 12.7-3.13 12.7.73 17.3-2.58 19.68-4 8.1-4 8.1-6.08 10.85-5.9 13.43-8.46 20.05-8.46 20.05 4.23-21.7-20.42-31.1c0 0-.2-7.37 1.65-9.4s4.7-2.94 2.9-13.15-.52-22.4-.52-24.86 5.52-17.73 5.52-17.73z" class="B"/><path d="M446.76 357.06l6.06 2s2.77 10.67 2.77 16.37 3.86 6.26 3.86 6.26 4.23 5 2 8.64-3.12 12.7-3.12 12.7.73 17.3-2.58 19.68-4.05 8.1-4.05 8.1-6.07 10.85-5.88 13.43-8.47 20.05-8.47 20.05 4.24-21.7-20.42-31.1c0 0-.18-7.37 1.66-9.4s4.7-2.94 2.9-13.15-.52-22.4-.52-24.86 5.52-17.73 5.52-17.73z" class="C"/><path d="M312.9 719.93s9.66-6.07 16-1.66-16 1.66-16 1.66zm75.07-18.77s8.55-1.1 15.73 6.63-15.73-6.63-15.73-6.63z" class="B"/><g class="B"><path d="M400.48 217.55c-1.23 1.06-2.8 1.82-3.63 3.23-.7 1.2-.72 2.7-1.28 4s-2.2 2.36-3.32 1.54c-.26-9-4.7-17.45-10.15-24.65a25.6 25.6 0 0 0-5.49-5.7c-2.14-1.6-4.8-2.36-7.47-2.1-3 .4-5.64 2.45-8.67 2.7-4 .34-7.6-2.43-11.56-2.57a11.3 11.3 0 0 0-8.48 3.95 22.9 22.9 0 0 0-4.55 8.43 49.4 49.4 0 0 0-2.54 14.56c-.06 2.8-.32 6.27-2.9 7.3a13.7 13.7 0 0 1 0 2.22c2.6-1 2.86-4.52 2.92-7.32a49.4 49.4 0 0 1 2.54-14.56 23.2 23.2 0 0 1 4.55-8.44 11.4 11.4 0 0 1 8.48-3.94c4 .14 7.6 2.9 11.56 2.57 3-.25 5.66-2.3 8.67-2.7a10.8 10.8 0 0 1 7.47 2.1 25.6 25.6 0 0 1 5.49 5.7c5.45 7.2 9.9 15.62 10.15 24.64 1.13.83 2.76-.25 3.32-1.53s.58-2.78 1.28-4c.82-1.4 2.4-2.16 3.63-3.22 3.12-2.7 3.9-7.22 3.78-11.33v-.38c-.2 3.56-1.14 7.2-3.8 9.5zm-73.82-.7c-2.3-2.53-5.44-4.22-7.55-6.9-1.78-2.37-2.8-5.23-2.9-8.2a15.4 15.4 0 0 0 2.91 10.39c2.1 2.7 5.25 4.38 7.55 6.9a15 15 0 0 1 3.77 8.92 15 15 0 0 0-3.77-11.13zm79.57-30.2c-.6 2.45-1.64 4.78-2.12 7.25a23.1 23.1 0 0 0-.31 5 19.4 19.4 0 0 1 .31-2.84c.48-2.48 1.53-4.8 2.12-7.25a12.3 12.3 0 0 0 .33-4.14 13.9 13.9 0 0 1-.33 1.98z"/><ellipse cx="132.73" cy="744.94" rx="97.44" ry="15.65" class="D"/></g><path fill="#535461" d="M129.6 445.14h6.27V586.3h-6.27z"/><path d="M175.27 585.88l-8.85 142.9a17.3 17.3 0 0 1-17.26 16.22H116.3a17.3 17.3 0 0 1-17.25-16.22L90.22 585.8a9 9 0 0 1 9-9.51h67.2c2.47.02 4.82 1.06 6.5 2.88s2.52 4.24 2.35 6.7z" class="H"/><path d="M174.88 592.24l-.56 8.97H91.14l-.56-8.97h84.3zm-.78 12.7l-.55 8.98h-81.6l-.56-8.98h82.72zm-.8 12.73l-.55 8.97H92.72l-.56-8.97h81.14z" fill="#9d9cb5"/><path d="M81 498.05c36.5 26.42 51.75 67.74 51.75 67.74s-44-1.5-80.52-27.93S.5 470.13.5 470.13s43.98 1.5 80.5 27.92z" class="D"/><path d="M.48 470.13s45.68 25.35 60.33 46.34 71.95 49.32 71.95 49.32" fill="none" class="I J K"/><path d="M104.58 444.83c19.87 14.37 28.18 36.86 28.18 36.86s-23.95-.82-43.83-15.2-28.17-36.87-28.17-36.87 23.94.82 43.82 15.2z" class="D"/><path d="M60.76 429.63s24.86 13.8 32.83 25.22 39.17 26.84 39.17 26.84" fill="none" class="I J K"/><path d="M161.6 480.55c-22.83 25.1-27.66 57.88-27.66 57.88s32.2-7.9 55-33 27.66-57.88 27.66-57.88-32.17 7.9-55 33z" class="D"/><path d="M216.63 447.56s-29.74 25.72-37.3 43.44-45.38 47.43-45.38 47.43" fill="none" class="I J K"/><path d="M1046.9 530.35s-16.5-82.14-10.2-92.36c0 0 .23-9.5-.15-21.6V415c1.1.74 2.27 1.4 3.47 2a28.1 28.1 0 0 0 18.9 2.44l-5-5.57c-1.2-1.33-2.45-2.77-2.7-4.53s.46-3.33 1.08-4.9c4.75-12 5-27.1-4.15-36.25-7.73-7.7-9.6-17.64-18-24.67-6.13-5.15-9.5-12.7-12.68-20-2.7-6.17-5.4-12.4-6.94-18.93-1.2-5.1-1.68-10.4-3.33-15.4s-4.74-9.84-9.57-12.07c-1.72-.8-3.63-1.24-5.2-2.3-2.06-1.4-3.3-3.65-4.8-5.63-7.57-10-32.92-4.1-44.92-.05-3.26 1.02-6.28 2.7-8.88 4.92l.1-.18c.1-.15.2-.3.3-.45a15.8 15.8 0 0 0-3.36 3.75c-1.75 2.77-2.48 6-3.94 9-1.76 3.55-11.55 13.46-7.34 17.45.3.27.63.48 1 .64 1.58.66 3.32.83 5 .5l-.18.43c-1.44 3.52-2.17 7.3-2.17 11.1 0 16.43 13.55 29.75 30.28 29.75 3.15 0 6.27-.48 9.27-1.43l.2 1.14c0 .15.05.3.07.45l-.53.74a1 1 0 0 0-.09-.13l-15.7 21.94c-2.4 1.7-16.22 11.7-17 19.2l-1.75 19.88a6.2 6.2 0 0 1-5 1.35c-4.9-.8-4.9 18-4.9 18s-3.26 3-5.5.4-8.16 6.2-8.16 6.2l-37.95 1.65-2-6.2a2.6 2.6 0 0 0-3.27-1.67 3 3 0 0 0-.45.19l-.14.08-.26.18-.13.12a2 2 0 0 0-.2.21l-.12.14-.06.06c-.47.65-.6 1.48-.36 2.24l1.72 5.3c-7.16 1.44-14.48 5.5-8.5 16.68l-30.26-5.6 9.8 8.22 50.54 10.43c-.67 1.2-.23 2.94 1.86 5.4 9 10.57 25.4 13.44 32 14.18a56.8 56.8 0 0 0 6.49 11l-.57 10.53s-16.7 80.26-19.77 84.33c1.54-1.75 2.96-3.6 4.23-5.57-4.85 16.5-11.63 39.06-13.4 42.44-2.86 5.4-5.5 27.25-2.25 28.65 1 .43 3.86.22 7.94-.1l-.18 70.4s.82 42.07-1.43 46.08-2.85 12.42-2.85 12.42-9 16.6-16.13 23.26c-.05.05-.1.1-.16.14l-.22-1.56s-8.57 10.82-27.53 10.2c0 0-11.4 7.42 5.5 7.82s38.53-.6 38.53-.6 15.1-23 27.73-20v17.43h3.87v-17.7c3.63-2.4 6.12-6.16 6.9-10.43a12.7 12.7 0 0 0-4.52-11.73 7.5 7.5 0 0 1-2.47-5.48l-.14.12c0-.35-.1-.7-.13-1.08-1.1-9-2.5-27.57 2.4-41.3 6.73-18.84 8.77-45.08 3.87-60.7-1.58-5-2.88-10.07-3.9-15.2l-.33-1.85c3.35.45 6.67 1.12 9.93 2 11.35 3.13 36.18 3.7 57.38 3.54l.18 1.8a65.5 65.5 0 0 0 2.36 12.52c2.66 8 3.88 43.27 3.88 43.27s3.43 29 1.56 40.8c-1 6.56-2 13.15-2.57 19.77v.13s-5.62 16-9.73 24.7c-.1.22-.2.44-.3.65a13 13 0 0 0-3.21.71s-5.5 11-11 12.82-3.67 7.8 8.76 5.6 31.2-4 31.2-4l.8-11.22 3.82-4.78-1 11.2 4.07-.8-.54-13.6 6.25-7.82s7.55-6.72-3.67-19.94v.3c-.12-.2-.23-.4-.36-.58v-.06c-1.86-2.88-3.34-8.25-.63-17.78 4.9-17.22 7.75-32.85 7.75-32.85s10.94-41.87-2.2-61.68h.58a33.3 33.3 0 0 1-2.83-8.8q-.1-.54-.18-1.1c9.73-.56 19.28-2.32 27.07-6.12-.03-.04-4.72-99.4-8.6-115.22zm-123.53-69.3v.2l-2 .1zm-6.86.95a2.2 2.2 0 0 0-.9.43 8.9 8.9 0 0 0-1.57 4.11l-3.12-.7s-2.2-.47-5.34-1l-1.5-1.5c4.1-.34 8.36-.84 12.42-1.34z" transform="translate(-47.24 -58.63)" fill="url(#B)"/><path d="M972.5 743.53l-1.2 14.17 4-.8-.6-15.37-2.2 2z" class="F"/><path d="M881.48 676.25c-4.8 13.7-3.45 32.2-2.37 41.17.4 3.32.77 5.34.77 5.34s-7.2 16.38-7.8 17-21.16 13.17-21.16 13.17l-14.37 8.4s-14.58-6.4-7.6-8.6a10.6 10.6 0 0 0 3.77-2.57c7-6.65 15.8-23.18 15.8-23.18s.6-8.4 2.8-12.38 1.4-45.92 1.4-45.92l.17-77.26 27.35.2a61.9 61.9 0 0 0 1.18 9 137.6 137.6 0 0 0 3.81 15.16c4.82 15.6 2.82 41.7-3.76 60.47z" class="E"/><path d="M879.88 722.76s-7.2 16.38-7.8 17-21.16 13.17-21.16 13.17l-14.37 8.4s-14.58-6.4-7.6-8.6a10.6 10.6 0 0 0 3.77-2.57l.62 4.37 4.8-.2 41-36.9a82.1 82.1 0 0 0 .73 5.32z" class="B"/><path d="M879.38 718.37l-41.23 37.14-4.8.2-1-7s-8.38 10.78-27 10.18c0 0-11.18 7.4 5.4 7.8s37.73-.6 37.73-.6 14.78-23 27.15-20v17.37h3.8v-17.53a15.8 15.8 0 0 0 6.74-10.4c.67-4.4-1-8.82-4.4-11.68-1.5-1.42-2.37-3.4-2.38-5.47z" class="F"/><path d="M976.3 697.6c-2.66 9.5-1.2 14.85.6 17.72v.06c2.33 3.54 3.96 7.5 4.78 11.67l.16.9-18.76 27.35-10.18 4s-16.37-5.6-13.38-7.2c.75-.4 1.92-2.47 3.26-5.34 4-8.65 9.52-24.6 9.52-24.6v-.13c.58-6.6 1.5-13.16 2.52-19.7 1.83-11.77-1.53-40.66-1.53-40.66s-1.2-35.13-3.8-43.12c-1.17-4.06-1.95-8.23-2.33-12.44-.54-5-.66-9.12-.66-9.12s10.78-15 30.54 1.2c1.58 1.3 2.97 2.8 4.13 4.48 13.65 19.42 2.66 62.2 2.66 62.2s-2.75 15.56-7.54 32.73z" class="E"/><path d="M981.9 727.96l-18.76 27.35-10.18 4s-16.37-5.6-13.38-7.2c.75-.4 1.92-2.47 3.26-5.34 6.93-.06 10.52 6.54 10.52 6.54l8.78-1.4s11.58-22.76 14.18-24.15.4-10.4.4-10.4v-2.3c.07.08.13.17.2.25v.06c2.33 3.54 3.96 7.5 4.78 11.67z" class="B"/><path d="M953.95 753.9s-5-9.18-14.58-5.8c0 0-5.4 11-10.78 12.78s-3.6 7.78 8.6 5.6 30.54-4 30.54-4l.8-11.2 12.38-15.77s7.38-6.7-3.6-19.86v2.3s2.2 9-.4 10.4-14.14 24.16-14.14 24.16z" class="F"/><path d="M880.28 591.6a61.9 61.9 0 0 0 1.18 9c-11.26-1.65-21.7-.83-28.56-.3v-8.9zm102.02 13.57s-16 .78-35.08.94l-.66-9.12s10.78-15 30.54 1.2c1.58 1.3 2.97 2.8 4.13 4.48a24.4 24.4 0 0 0 1.07 2.5z" class="B"/><path d="M982.3 603.37s-70.08 3.4-91.44-2.6-42.53-.8-45.72-2.2-.6-23.16 2.2-28.55 18.16-59.9 18.16-59.9l14.78-77.06 63.68-17.57s39.53 154.33 36.14 165.7c-1.23 4.36-1.43 8.94-.58 13.4a33.4 33.4 0 0 0 2.78 8.77z" class="F"/><use xlink:href="#F" fill="#c7daf5"/><use xlink:href="#F" class="B"/><path d="M941.87 281.75l-4.1 3.86-13.35 12.13c-6.4 5.57-11.68 9.66-9.8 6.17s1.53-9.57.6-15.26l-.2-1.13a104.8 104.8 0 0 0-3.09-12.36c0 0 10.34-13.36 16.06-18.63 2.13-2 3.62-2.82 3.7-1.43.1 1.87 1.5 6 3.24 10.38.05.14.1.27.16.4 1.16 3 2.47 6.08 3.62 8.74l3.16 7.12z" class="E"/><path d="M935.1 265.9a29.7 29.7 0 0 1-19.88 22.76 105 105 0 0 0-3.3-13.5S931.4 250 931.7 255.1c.07 1.93 1.6 6.2 3.4 10.8zm-21.83 29.47l2.52-3.55s1.67 10.18 7.8 5.7 6.44 33.8 6.44 33.8l-6.6 98.53L875.8 427l1.35-47.6 5.4-24 13.33-34.9 7.93-11.53z" class="B"/><path d="M930.04 331.9l-6.63 98.53-47.55-2.85 1.35-47.62 5.4-24 13.33-34.9 17.37-25.16 2.52-3.54s1.67 10.18 7.8 5.7l.13-.1c6-3.8 6.28 33.93 6.28 33.93z" class="F"/><use xlink:href="#G" class="C"/><use xlink:href="#G" opacity=".03"/><path d="M777.66 389.76l9.58 8.18 78.86 16.57-9.78-9.98-78.66-14.77zm135.76-91.24c-1.3 2-5.06 12.24-8.2 21.18l-4.8 14s-5.1 33.14-7.7 39.13-1.2 29.35-1.2 29.35l-9.7 57.7s-4.4 29.75-11.17 47.52c-6.7 17.5-14.14 25.7-14.37 25.95 3-4.06 19.35-84 19.35-84l5.4-100.82 1.6-17.77c.8-8.2 17-19.37 17-19.37l15.62-22.2c1.57 2.1.52 5.76-1.87 9.35z" class="C"/><path d="M872.7 428.1s-23-1-34.14-14.38 25.75-5.34 25.75-5.34l9.6 2.2z" class="E"/><path d="M980.1 581.22c-1.23 4.36-1.43 8.94-.58 13.4-25.1 1.78-51.93-5-51.93-5-5 4.6-18.17 11.38-18.17 11.38l-7.18-89c-4.6-12-6.4-74.87-6.4-74.87l1-8.22c0-.12 0-.25.05-.37 1.8-13.77 5.34-39.62 7.08-43.1 2.4-4.8-7.38-17.57-7.38-17.57l5-42.53c9.38-4.2 16.57-17.57 16.57-17.57l5.52-9.67c6-3.85 6.3 33.88 6.3 33.88l-6 89.1 19.88-5.5s39.62 154.28 36.23 165.66z" class="B"/><path d="M1005.85 587.37c-27.35 13.58-77.06 1-77.06 1-5 4.6-18.17 11.38-18.17 11.38l-7.2-89c-4.58-12-6.38-74.87-6.38-74.87s5.78-46.9 8.18-51.7c.7-1.4.36-3.48-.47-5.72a72.4 72.4 0 0 1-4.38-33.49l2.45-20.88c9.4-4.2 16.58-17.58 16.58-17.58l18.56-32.54 6.4 5.8 6 5c7.83 6.6 21.36 18.22 28.34 25.33 6.14 6.26 8.08 30.6 8.64 48.94.37 12.07.15 21.53.15 21.53-6.2 10.2 10 92 10 92 3.77 15.8 8.36 114.8 8.36 114.8z" class="C"/><path d="M953.35 306.3s-18.77 35.73-16.6 49.3 8.38 28.95 5.4 32.54c-2.08 2.76-5.33 4.38-8.8 4.4-3 .2-11 5.8-11 6.4s-7.4.6-14 3.4-16.37 4.4-16.37 4.4-19-.6-20.77 1.2-3.6 12.57.2 21.16 8 15 11.18 16.17 23.36-5.6 39.73-7.2 34.14-14.57 34.14-14.57 19.57-7 23-18.77-4.2-76.46-4.2-76.46-5.76-30.15-21.93-21.96z" opacity=".03"/><path d="M950.95 303.3s-18.77 35.74-16.57 49.3 8.38 28.95 5.38 32.55a11 11 0 0 1-8.78 4.39c-3 .2-11 5.8-11 6.4s-7.4.6-14 3.4-16.37 4.4-16.37 4.4-19-.6-20.76 1.2-3.6 12.58.2 21.16 8 15 11.18 16.17 23.36-5.6 39.73-7.18 34.14-14.58 34.14-14.58 19.56-7 22.95-18.76-4.2-76.47-4.2-76.47-5.74-30.14-21.9-21.96z" opacity=".03"/><path d="M952.76 304.5s-18.77 35.74-16.57 49.3 8.38 28.95 5.4 32.54a11 11 0 0 1-8.79 4.4c-3 .2-11 5.8-11 6.38s-7.38.6-14 3.4-16.37 4.4-16.37 4.4-19-.6-20.77 1.2-3.6 12.58.2 21.16 8 15 11.18 16.17 23.36-5.6 39.73-7.2 34.14-14.57 34.14-14.57 19.57-7 23-18.77-4.14-76.46-4.14-76.46-5.84-30.1-22-21.96z" class="C"/><path d="M952.35 400.37s-15-3-9.78 2 5.2 9.38 11.58 9.18-1.8-11.18-1.8-11.18zm25.35 107.58s-6.78 4.6 6.2 15.17-6.2-15.17-6.2-15.17zm-12.94 37.73c0 .6-2.4 22 6.58 27.35s-6.58-27.35-6.58-27.35z" class="B"/><g class="E"><path d="M822.18 377.96c-7.24.25-22.88 2.46-14.77 17.6 7.17 13.4 19.22 4.44 26-2.35a25.5 25.5 0 0 0-11.23-15.24zm11.97 14.4z"/><path d="M833.5 393.08l.3-.3z"/></g><path d="M950.36 285.37l-15.38 10.6c-3.44 2.55-10 17.52-14.23 25.16-3.37 6.15-14.32 7.73-18.45 8.12l.53-4.57c9.4-4.2 16.58-17.58 16.58-17.58l18.56-32.54 6.4 5.8 6 5z" class="B"/><path d="M950.36 284.77l-15.38 10.6c-3.44 2.54-10 17.5-14.23 25.15-3.37 6.15-14.32 7.73-18.45 8.12l.53-4.57c9.4-4.2 16.58-17.58 16.58-17.58l18.56-32.54 6.4 5.8 6 5.02z" fill="#dce7ff"/><path d="M935.58 259.3a29.6 29.6 0 0 1-5.22 16.81c-8.3 12.08-24.2 16.28-37.4 9.88s-19.73-21.48-15.38-35.48 18.28-22.73 32.77-20.53 25.2 14.66 25.2 29.32z" class="E"/><path d="M987.34 359.04c-4.06-2.5-7.37-6.05-9.57-10.28-1.67-3.3-2.78-7.1-5.63-9.45-2.57-2.1-6-2.6-9.2-3.55-10.52-3.1-19.34-12.7-19.67-23.67-.16-5.16 1.45-10.3.72-15.42a17.1 17.1 0 0 0-3.34-7.95c-.88-1.1-1.85-2.15-2.9-3.1-1.4-1.32-2.87-2.6-4.15-4-.8-.87-1.5-1.82-2.1-2.85a13.7 13.7 0 0 1-1.15-2.65c-2-6.12-.18-13.38-2.38-19.57l-.12-.34c-.83-2.2-2.52-4.4-4.87-4.57s-4.36 1.78-6.6 2.65c-4.7 1.82-9.75-1.28-13.66-4.44s-8.32-6.77-13.3-6.07c-3.3.47-5.9 2.7-8.92 3.87a12.5 12.5 0 0 1-2.11.61c5.3-13.2 19.2-20.77 33.15-18.08s24.03 14.9 24.02 29.13c0 2.08-.2 4.16-.65 6.2.05.14.1.27.16.4 1.16 3 2.47 6.08 3.62 8.74l5.65 5.12 6 5c7.83 6.6 21.36 18.22 28.34 25.33 6.14 6.28 8.06 30.62 8.64 48.95z" class="B"/><path d="M880.17 229.37c1.43-2.9 2.14-6.17 3.85-8.93 2.5-4 6.9-6.56 11.4-8.1 11.75-4.05 36.58-9.93 44 0 1.46 2 2.67 4.22 4.7 5.6 1.54 1.05 3.4 1.5 5.1 2.3 4.73 2.22 7.75 7.06 9.36 12s2.1 10.24 3.27 15.33c1.5 6.53 4.16 12.72 6.8 18.87 3.1 7.26 6.4 14.8 12.4 19.92 8.2 7 10 16.9 17.6 24.6 9 9.12 8.7 24.17 4.07 36.12-.6 1.57-1.3 3.2-1.06 4.88s1.48 3.2 2.65 4.52l4.92 5.55a27.7 27.7 0 0 1-30.23-13.94c-1.67-3.3-2.78-7.1-5.64-9.45-2.56-2.1-6-2.6-9.2-3.54-10.52-3.12-19.34-12.73-19.67-23.7-.16-5.15 1.45-10.3.72-15.4a17 17 0 0 0-3.35-8c-2.75-3.6-6.9-6-9.14-10-3.8-6.7-.9-15.38-3.64-22.56-.84-2.2-2.52-4.4-4.87-4.57s-4.36 1.78-6.6 2.65c-4.68 1.82-9.74-1.27-13.65-4.44s-8.32-6.77-13.3-6.06c-3.3.46-5.88 2.7-8.9 3.87-2.24.86-6.78 1.63-8.74-.26-4.14-3.8 5.45-13.68 7.18-17.24z" fill="#591d4b"/><path d="M981.76 344.76c-1.68-3.3-2.78-7.1-5.64-9.44-2.56-2.1-6-2.6-9.2-3.55-10.5-3.1-19.33-12.72-19.67-23.68-.16-5.15 1.45-10.3.73-15.4a17.1 17.1 0 0 0-3.35-7.95c-2.76-3.6-6.9-6-9.14-10-3.8-6.68-.9-15.37-3.65-22.56-.83-2.2-2.52-4.4-4.86-4.57s-4.37 1.8-6.6 2.66c-4.68 1.82-9.75-1.28-13.65-4.44s-8.33-6.77-13.3-6.07c-3.3.47-5.9 2.7-8.9 3.87-2.24.86-6.8 1.64-8.75-.25-4.12-4 5.47-13.85 7.2-17.4 1.43-2.92 2.14-6.17 3.86-8.93l.3-.45a15.9 15.9 0 0 0-3.29 3.74c-1.7 2.76-2.42 6-3.85 8.93-1.73 3.54-11.32 13.42-7.2 17.4 2 1.9 6.5 1.12 8.74.26 3-1.17 5.62-3.4 8.9-3.87 5-.7 9.4 2.9 13.3 6.06s9 6.26 13.66 4.44c2.24-.87 4.2-2.83 6.6-2.65s4 2.37 4.87 4.57c2.73 7.18-.15 15.87 3.64 22.56 2.24 3.93 6.4 6.4 9.14 10a17 17 0 0 1 3.35 8c.73 5.1-.88 10.25-.72 15.4.33 11 9.15 20.57 19.67 23.7 3.17.94 6.63 1.44 9.2 3.54 2.87 2.35 4 6.15 5.64 9.45a27.7 27.7 0 0 0 30.23 13.94l-2.32-2.62c-10.1.15-20.3-5.6-24.9-14.67zm-68.94-45.64c-1.3 2-5.06 12.24-8.2 21.18-2.93-1.14-5.6-8.4-5.6-8.4l15.62-22.22c1.6 2.2.55 5.85-1.84 9.45z" class="B"/><path d="M913.42 298.52c-1.3 2-5.06 12.24-8.2 21.18-2.93-1.13-5.6-8.4-5.6-8.4l15.62-22.2c1.6 2.2.55 5.85-1.84 9.44z" fill="#dce7ff"/><path d="M822.6 400.68l-8.66-27.3c-.2-.65-.15-1.35.16-1.95s.85-1.06 1.5-1.26c1.34-.42 2.77.32 3.2 1.66l8.66 27.28-.86 5.7z" fill="#be8b87"/><path d="M814.76 370.97c1.34-.43 2.78.32 3.2 1.66l8.66 27.28-.65 4.28.63.66.86-5.7-8.7-27.28c-.43-1.34-1.86-2.08-3.2-1.66-.54.18-1 .53-1.33 1 .17-.1.35-.17.53-.23z" class="B C"/><path fill="#efc8c4" d="M822.6 400.68l4.86-1.54-.86 5.7-4-4.17z"/><path d="M825.18 403.37a1 1 0 0 1 .31-.26c.14-.1.33-.1.47 0 .07.08.13.17.17.27.13.22.36.37.62.4l-.15 1z" fill="#727a9c"/><path d="M813.9 383.07s17.37-.1 13.28 7.3-10.48 8.28-10.48 8.28z" class="E"/><path d="M705.86 51.42h-.75c-29.84 0-56.23 15.8-71.4 39.1-15.18-23.3-41.57-39.1-71.4-39.1h-.75a85 85 0 0 0-84.19 84.95c0 27.8 12.18 67.27 35.93 99.74 45.25 61.87 120.42 116 120.42 116s75.17-54.12 120.4-116c23.76-32.47 35.93-71.93 35.93-99.74a85 85 0 0 0-84.18-84.95zm-10.73 189.45c-6.96-.03-13.18-4.32-15.67-10.82h-17.84c-2.4-.01-4.54-1.56-5.3-3.84l-5.48-16.5-17.34 60.6a5.6 5.6 0 0 1-5.38 4.05h-.35c-2.6-.13-4.78-2.06-5.2-4.64L604.7 162.22l-13.06 63.6c-.62 2.5-2.85 4.23-5.4 4.23H561.1a5.6 5.6 0 0 1-5.04-8.45 5.6 5.6 0 0 1 5.04-2.72h20.73l18.5-85.5a5.6 5.6 0 0 1 11 .46l18.25 109.64 15.54-54.2a5.5 5.5 0 0 1 5.23-4h.1a5.6 5.6 0 0 1 5.3 3.84l9.9 29.8h13.58c2.68-8.14 11.07-12.95 19.45-11.14s14.05 9.64 13.14 18.16-8.1 15-16.67 15z" class="D"/></svg>